<svg xmlns="http://www.w3.org/2000/svg" id="a" viewBox="0 0 595.28 595.28"><path d="M561.25,346.65c-3.37,1.87-6.68,5.86-9.07,9.26,2.66-8.01,4.69-16.15,6.16-24.27,2.93.05,10.97-.33,19.47-5.16,8.52-4.85,10.47-16.76,10.47-16.76,0,0-13.77-1.24-21.57,5.15-3.14,2.58-5.78,7.61-7.48,11.47,1.33-8.86,1.99-17.65,2.02-26.21,2.85-.46,10.41-2.2,17.63-8.29,7.31-6.16,7.11-18.1,7.11-18.1,0,0-13.38,1.09-19.72,8.64-2.49,2.97-4.13,8.11-5.09,12.14-.26-9-1.2-17.7-2.8-25.86,2.63-.92,9.57-3.88,15.43-11.06,5.91-7.24,3.65-18.84,3.65-18.84,0,0-12.58,3.32-17.33,11.74-1.97,3.48-2.61,9.15-2.8,13.31-.65-2.8-1.37-5.54-2.18-8.19-1.65-6.17-3.53-11.93-5.52-17.3,1.93-1.04,8.6-5.08,13.24-13.59,4.39-8.05.23-18.99.23-18.99,0,0-11.45,5.34-14.53,14.36-1.46,4.27-.76,11.05-.12,15.12-3.87-9.88-8.11-18.3-12.15-25.26,1.5-1.18,7.37-6.28,10.42-15.58,2.81-8.58-3.07-18.55-3.07-18.55,0,0-10,7.14-11.38,16.45-.7,4.71,1.46,11.81,2.76,15.52-2.82-4.71-5.5-8.68-7.82-11.9-.07-1.78-.66-10.17-5.39-15.24-3.8-4.05-13.11-7.06-13.11-7.06,0,0,.02,7.18,5.3,14.92,3.54,5.19,10.4,7.11,12.54,7.6,2.74,4.02,6.02,9.18,9.43,15.45-2.65-2.84-8.25-8.39-13.04-10.2-9.17-3.45-20.62,1.31-20.62,1.31,0,0,6.2,9.79,15.42,11.7,9.86,2.06,17.32-.2,19.27-.9,3.77,7.11,7.64,15.57,11.08,25.31-2.4-3.48-6.56-8.92-10.63-11.27-8.68-5.03-21.17-2.3-21.17-2.3,0,0,4.53,10.82,13.55,14.34,9.15,3.57,16.82,2.91,19.39,2.53,1.46,4.39,2.84,9.02,4.07,13.91,1.21,4.21,2.23,8.63,3.04,13.2-1.79-3.87-5.08-10.15-8.84-13.25-7.91-6.53-21.08-5.99-21.08-5.99,0,0,2.65,11.55,11.17,16.62,8.72,5.2,16.7,5.84,19.29,5.9,1.31,8.47,1.95,17.43,1.84,26.66-1.19-4.18-3.3-10.15-6.26-13.55-6.86-7.88-20.32-9.65-20.32-9.65,0,0,.6,11.95,8.34,18.48,7.58,6.41,15.21,8.54,18.14,9.17-.31,8.31-1.21,16.79-2.75,25.3-.52-4.25-1.59-9.73-3.76-13.25-5.54-9.03-18.9-13.14-18.9-13.14,0,0-1.54,11.99,5.14,19.84,6.27,7.39,13.31,10.87,16.41,12.14-1.74,8.1-4.07,16.2-7.03,24.14.22-4.31.11-9.9-1.44-13.75-3.99-9.95-16.81-16.38-16.81-16.38,0,0-3.72,11.66,1.64,20.63,5.04,8.44,11.56,13.14,14.48,14.95-3.21,7.76-7.05,15.34-11.53,22.61,1.04-4.29,2.03-10.1,1.12-14.35-2.27-10.59-14.13-19.23-14.13-19.23,0,0-5.87,10.94-2.04,20.8,3.62,9.35,9.45,15.17,12.06,17.44-4.41,6.57-9.37,12.85-14.93,18.73,1.71-3.98,3.46-9.08,3.31-13.13-.39-10.94-10.88-21.6-10.88-21.6,0,0-7.94,9.85-5.82,20.34,1.94,9.66,6.59,16.36,8.9,19.22-3.3,3.42-6.79,6.59-10.36,9.63l3.64,2.37c4.31-3.81,8.48-7.82,12.36-12.17,3.17,1.73,10.71,5.15,20.73,5.29,10.74.16,19.02-9.41,19.02-9.41,0,0-12.43-8.32-23.3-6.72-3.52.52-7.57,2.61-10.95,4.73,5.04-5.88,9.54-12.1,13.52-18.55,3.38,1.16,11.12,3.17,20.63,1.65,10.27-1.64,16.53-12.37,16.53-12.37,0,0-13.32-6.03-23.42-2.65-3.33,1.12-6.91,3.91-9.8,6.59,3.81-6.94,7.08-14.1,9.8-21.39,3.18.56,11.2,1.43,20.38-1.79,9.54-3.33,13.66-14.83,13.66-14.83,0,0-13.76-3.65-22.84,1.34Z" fill="#fff"></path><path d="M34.02,346.65c3.37,1.87,6.68,5.86,9.07,9.26-2.66-8.01-4.69-16.15-6.16-24.27-2.93.05-10.97-.33-19.47-5.16-8.52-4.85-10.47-16.76-10.47-16.76,0,0,13.77-1.24,21.57,5.15,3.14,2.58,5.78,7.61,7.48,11.47-1.33-8.86-1.99-17.65-2.02-26.21-2.85-.46-10.41-2.2-17.63-8.29-7.31-6.16-7.11-18.1-7.11-18.1,0,0,13.38,1.09,19.72,8.64,2.49,2.97,4.13,8.11,5.09,12.14.26-9,1.2-17.7,2.8-25.86-2.63-.92-9.57-3.88-15.43-11.06-5.91-7.24-3.65-18.84-3.65-18.84,0,0,12.58,3.32,17.33,11.74,1.97,3.48,2.61,9.15,2.8,13.31.65-2.8,1.37-5.54,2.18-8.19,1.65-6.17,3.53-11.93,5.52-17.3-1.93-1.04-8.6-5.08-13.24-13.59-4.39-8.05-.23-18.99-.23-18.99,0,0,11.45,5.34,14.53,14.36,1.46,4.27.76,11.05.12,15.12,3.87-9.88,8.11-18.3,12.15-25.26-1.5-1.18-7.37-6.28-10.42-15.58-2.81-8.58,3.07-18.55,3.07-18.55,0,0,10,7.14,11.38,16.45.7,4.71-1.46,11.81-2.76,15.52,2.82-4.71,5.5-8.68,7.82-11.9.07-1.78.66-10.17,5.39-15.24,3.8-4.05,13.11-7.06,13.11-7.06,0,0-.02,7.18-5.3,14.92-3.54,5.19-10.4,7.11-12.54,7.6-2.74,4.02-6.02,9.18-9.43,15.45,2.65-2.84,8.25-8.39,13.04-10.2,9.17-3.45,20.62,1.31,20.62,1.31,0,0-6.2,9.79-15.42,11.7-9.86,2.06-17.32-.2-19.27-.9-3.77,7.11-7.64,15.57-11.08,25.31,2.4-3.48,6.56-8.92,10.63-11.27,8.68-5.03,21.17-2.3,21.17-2.3,0,0-4.53,10.82-13.55,14.34-9.15,3.57-16.82,2.91-19.39,2.53-1.46,4.39-2.84,9.02-4.07,13.91-1.21,4.21-2.23,8.63-3.04,13.2,1.79-3.87,5.08-10.15,8.84-13.25,7.91-6.53,21.08-5.99,21.08-5.99,0,0-2.65,11.55-11.17,16.62-8.72,5.2-16.7,5.84-19.29,5.9-1.31,8.47-1.95,17.43-1.84,26.66,1.19-4.18,3.3-10.15,6.26-13.55,6.86-7.88,20.32-9.65,20.32-9.65,0,0-.6,11.95-8.34,18.48-7.58,6.41-15.21,8.54-18.14,9.17.31,8.31,1.21,16.79,2.75,25.3.52-4.25,1.59-9.73,3.76-13.25,5.54-9.03,18.9-13.14,18.9-13.14,0,0,1.54,11.99-5.14,19.84-6.27,7.39-13.31,10.87-16.41,12.14,1.74,8.1,4.07,16.2,7.03,24.14-.22-4.31-.11-9.9,1.44-13.75,3.99-9.95,16.81-16.38,16.81-16.38,0,0,3.72,11.66-1.64,20.63-5.04,8.44-11.56,13.14-14.48,14.95,3.21,7.76,7.05,15.34,11.53,22.61-1.04-4.29-2.03-10.1-1.12-14.35,2.27-10.59,14.13-19.23,14.13-19.23,0,0,5.87,10.94,2.04,20.8-3.62,9.35-9.45,15.17-12.06,17.44,4.41,6.57,9.37,12.85,14.93,18.73-1.71-3.98-3.46-9.08-3.31-13.13.39-10.94,10.88-21.6,10.88-21.6,0,0,7.94,9.85,5.82,20.34-1.94,9.66-6.59,16.36-8.9,19.22,3.3,3.42,6.79,6.59,10.36,9.63l-3.64,2.37c-4.31-3.81-8.48-7.82-12.36-12.17-3.17,1.73-10.71,5.15-20.73,5.29-10.74.16-19.02-9.41-19.02-9.41,0,0,12.43-8.32,23.3-6.72,3.52.52,7.57,2.61,10.95,4.73-5.04-5.88-9.54-12.1-13.52-18.55-3.38,1.16-11.12,3.17-20.63,1.65-10.27-1.64-16.53-12.37-16.53-12.37,0,0,13.32-6.03,23.42-2.65,3.33,1.12,6.91,3.91,9.8,6.59-3.81-6.94-7.08-14.1-9.8-21.39-3.18.56-11.2,1.43-20.38-1.79-9.54-3.33-13.66-14.83-13.66-14.83,0,0,13.76-3.65,22.84,1.34Z" fill="#fff"></path><path d="M427.51,160.5c-36.27-35.1-83.15-52.57-129.96-52.57h-.05c-48.79.01-97.51,18.99-134.14,56.75-71.8,74-69.95,192.11,4.14,263.81,36.27,35.1,83.13,52.56,129.94,52.56h.03s.02,0,.03,0c48.78-.02,97.51-18.99,134.14-56.75,71.8-73.99,69.94-192.1-4.14-263.79ZM303.73,226.26c26.01-.16,48.34-1.31,67.29-2.96,4.35,20.25,6.79,42.21,7.18,64.98h-74.47v-62.01ZM303.73,213.81v-92.88c6.9,1.24,13.75,4.54,20.46,9.86,9.97,7.91,19.09,19.82,27.13,35.41,6.83,13.24,12.44,28.37,16.75,44.81-18.22,1.56-39.6,2.64-64.34,2.8ZM291.29,120.95v92.86c-24.73-.16-46.1-1.24-64.33-2.8,3.9-14.82,8.85-28.6,14.81-40.91,13.72-28.34,31.47-45.83,49.51-49.15ZM291.29,226.26v62.01h-74.5c.38-22.72,2.87-44.67,7.24-64.97,18.94,1.66,41.26,2.8,67.25,2.96ZM204.35,288.27h-81.1c.97-27.8,8.47-54.5,21.77-78.33,10.73,3.2,32.19,8.46,66.58,12.15-4.45,21.17-6.88,43.62-7.26,66.18ZM204.38,300.71c.37,22.58,2.76,45.04,7.2,66.19-34.43,3.69-55.89,8.96-66.6,12.16-13.25-23.77-20.74-50.47-21.72-78.35h81.11ZM216.82,300.71h74.47v62.01c-26.01.16-48.34,1.31-67.29,2.97-4.36-20.26-6.79-42.22-7.18-64.98ZM291.29,375.16v92.88c-6.9-1.24-13.76-4.53-20.47-9.86-9.96-7.91-19.09-19.82-27.13-35.4-6.83-13.24-12.43-28.37-16.75-44.82,18.22-1.56,39.6-2.64,64.34-2.8ZM303.73,468.02v-92.86c24.73.16,46.11,1.23,64.33,2.8-3.89,14.81-8.85,28.59-14.81,40.91-13.72,28.34-31.48,45.83-49.52,49.15ZM303.73,362.72v-62.01h74.5c-.38,22.72-2.86,44.66-7.24,64.97-18.94-1.66-41.26-2.8-67.25-2.96ZM390.66,300.71h81.1c-.97,27.8-8.46,54.5-21.77,78.33-10.73-3.2-32.19-8.46-66.58-12.15,4.45-21.17,6.88-43.62,7.26-66.18ZM390.64,288.27c-.37-22.59-2.77-45.04-7.21-66.19,34.42-3.69,55.89-8.96,66.6-12.16,13.25,23.77,20.74,50.46,21.72,78.35h-81.11ZM418.86,169.44c9.31,9.01,17.48,18.87,24.44,29.42-11.12,3.06-31.57,7.66-62.74,10.96-4.55-17.87-10.59-34.58-18.19-49.32-7.89-15.29-16.78-27.24-26.23-35.85,30.92,6.96,59.45,22.28,82.72,44.79ZM172.29,173.34c16.73-17.24,36.36-30.6,58.36-39.71,9.2-3.81,18.62-6.8,28.24-8.97-10.32,9.4-19.95,22.73-28.32,40.02-6.64,13.72-12.01,28.96-16.14,45.14-31.11-3.29-51.54-7.88-62.68-10.94,5.97-9.03,12.82-17.58,20.53-25.53ZM176.15,419.54c-9.31-9.01-17.48-18.87-24.45-29.42,11.12-3.06,31.57-7.67,62.74-10.96,4.55,17.87,10.6,34.59,18.19,49.33,7.88,15.29,16.77,27.23,26.23,35.84-30.92-6.97-59.45-22.27-82.71-44.79ZM422.72,415.63c-16.73,17.24-36.37,30.6-58.37,39.71-9.19,3.8-18.62,6.8-28.23,8.97,10.32-9.4,19.95-22.74,28.32-40.02,6.64-13.72,12.02-28.96,16.13-45.13,31.12,3.29,51.55,7.89,62.68,10.94-5.97,9.04-12.82,17.59-20.53,25.53Z" fill="#fff"></path><path d="M145.5,107.26l17.13,16.74c-1.35,7.7-6.4,17.49-12.32,23.57-12.87,13.18-31.67,13.82-44.18,1.6-12.46-12.17-11.91-31.21,1.5-44.94,6.34-6.51,15.66-11.06,24-11.7l1.69,15.66c-5.64.19-11.61,2.66-15.23,6.37-5.99,6.14-5.7,15.45.68,21.68,6.5,6.34,15.81,6.29,21.86.09,1.72-1.76,3.43-4.72,4.64-8.04l-10.39-10.16,10.62-10.88Z" fill="#fff"></path><path d="M221,66.06c7.77,15.69,1.24,33.53-15.52,41.84-16.75,8.29-34.86,2.75-42.68-13.01-7.77-15.7-1.09-33.23,15.67-41.54,16.76-8.3,34.8-2.9,42.53,12.71ZM179.06,86.93c4,8.07,13.07,11.08,20.08,7.6,7-3.47,9.67-12.29,5.67-20.36-4-8.07-12.54-11.15-19.56-7.68-7.08,3.51-10.19,12.36-6.19,20.43Z" fill="#fff"></path><path d="M286.61,69.95l2.23,14.62-42.15,6.43-8.98-58.85,17.46-2.67,6.76,44.25,24.68-3.77Z" fill="#fff"></path><path d="M335.47,28.72c19.09,2.78,30,16.3,27.42,34.04-2.58,17.75-17.16,27.65-36.59,24.83l-25.23-3.68,8.58-58.96,25.82,3.76ZM320.56,72.75l8.83,1.28c7.99,1.17,14.28-4.28,15.65-13.7,1.38-9.5-3.5-16.65-11.92-17.88l-7.98-1.16-4.58,31.45Z" fill="#fff"></path><path d="M406.29,63.9l-4.2,8.35,25.12,12.64-6.11,12.14-25.11-12.64-4.24,8.42,28.46,14.32-6.11,12.14-44.24-22.25,26.75-53.2,43.49,21.87-6.11,12.14-27.69-13.93Z" fill="#fff"></path><path d="M455.07,156.61l5.69-41.24-23.47,23.37-11.45-11.5,42.2-41.99,10.66,10.71-5.81,41.36,23.59-23.48,11.38,11.43-42.19,42-10.61-10.65Z" fill="#fff"></path><path d="M114.47,478.38l-6.61-6.61-11.35,11.35-12.5-12.48,42.1-42.1,19.63,19.63c11.29,11.3,12.38,23.19,2.83,32.74-6.25,6.24-13.34,8.29-20.48,6.3l-5.23,22.28-14.17-14.17,5.77-16.94ZM124.61,469.31c3.72,3.72,7.93,3.84,11.71.06,3.66-3.66,3.54-7.86-.18-11.58l-7.14-7.14-11.53,11.52,7.14,7.15Z" fill="#fff"></path><path d="M186.5,495.3l-4.28,8.31,25.02,12.87-6.22,12.1-25.02-12.87-4.32,8.4,28.35,14.58-6.22,12.1-44.07-22.67,27.25-52.99,43.33,22.28-6.22,12.1-27.59-14.19ZM204.6,484.44l-11.19-5.76,15.09-9.45,10.98,11.19-14.87,4.02Z" fill="#fff"></path><path d="M283.42,517.09l-8.84,12.23c-5.41-4.51-13.39-9.12-18.32-10.01-2.93-.53-5.03.13-5.43,2.3-1.54,8.63,30,8.99,26.21,30.16-2.24,12.47-14.34,16.43-27.47,14.07-9.96-1.78-20.21-7.24-26.53-14.32l8.88-12.05c5.11,6.17,14.21,11.78,20.24,12.86,3.68.65,6.25-.18,6.73-2.85,1.59-8.88-30.04-8.76-26.34-29.42,2.02-11.29,12.93-16.76,27.57-14.14,8.95,1.6,17.68,5.92,23.3,11.16Z" fill="#fff"></path><path d="M316.6,522.65l1.07,9.29,27.92-3.2,1.55,13.5-27.93,3.19,1.07,9.37,31.65-3.62,1.54,13.51-49.2,5.62-6.76-59.16,48.36-5.52,1.54,13.49-30.8,3.52Z" fill="#fff"></path><path d="M399.11,539.63l.86,10.12-16.43,7.8-2.59-64.7,16.43-7.8,47.72,43.28-17.04,8.09-7.23-7.11-21.71,10.31ZM396.28,505.14l1.74,20.7,13.05-6.19-14.79-14.51Z" fill="#fff"></path><path d="M491.8,452.75c11.09,11.25,10.5,26.03-1.59,37.95-12.16,11.98-27.18,12.59-38.27,1.35l-24.15-24.5,12.58-12.4,24.15,24.5c4.83,4.9,11.14,4.64,15.37.47,4.17-4.11,4.21-10-.67-14.96l-24.15-24.5,12.58-12.4,24.15,24.49Z" fill="#fff"></path></svg>